# xmcd
#
# Track frame offsets:
#	150
#	19487
#	39476
#	54092
#	74407
#	95344
#	112401
#	126959
#
# Disc length: 1938 seconds
#
# Revision: 1
# Processed by: cddbd v1.4PL0 Copyright (c) Steve Scherf et al.
# Submitted via: audiograbber 1.80
#
DISCID=70079008
DTITLE=Malford Milligan - Rides Again (Sampler)
DYEAR=1900
DGENRE=
TTITLE0=Palace Of The King
TTITLE1=No Beginner At The Blues
TTITLE2=Lickin' Stick
TTITLE3=Work Dog Work
TTITLE4=Dreams To Remember
TTITLE5=Unforgiven Memories
TTITLE6=Pourin' Water On A Drowning Man
TTITLE7=Great Week
EXTD=
EXTT0=
EXTT1=
EXTT2=
EXTT3=
EXTT4=
EXTT5=
EXTT6=
EXTT7=
PLAYORDER=
